<svg width="14" height="16" viewBox="0 0 14 16" fill="none" xmlns="http://www.w3.org/2000/svg">
<path d="M13.75 14.75V13.25C13.75 12.215 13.3292 11.276 12.652 10.598C11.9747 9.92 11.035 9.5 10 9.5H4C2.965 9.5 2.026 9.92075 1.348 10.598C0.67 11.2752 0.25 12.215 0.25 13.25V14.75C0.25 15.164 0.586 15.5 1 15.5C1.414 15.5 1.75 15.164 1.75 14.75V13.25C1.75 12.6282 2.00125 12.0672 2.40925 11.6592C2.81725 11.2512 3.37825 11 4 11H10C10.6217 11 11.1828 11.2512 11.5908 11.6592C11.9988 12.0672 12.25 12.6282 12.25 13.25V14.75C12.25 15.164 12.586 15.5 13 15.5C13.414 15.5 13.75 15.164 13.75 14.75ZM10.75 4.25C10.75 3.215 10.3293 2.276 9.652 1.598C8.97475 0.92 8.035 0.5 7 0.5C5.965 0.5 5.026 0.92075 4.348 1.598C3.67 2.27525 3.25 3.215 3.25 4.25C3.25 5.285 3.67075 6.224 4.348 6.902C5.02525 7.58 5.965 8 7 8C8.035 8 8.974 7.57925 9.652 6.902C10.33 6.22475 10.75 5.285 10.75 4.25ZM9.25 4.25C9.25 4.87175 8.99875 5.43275 8.59075 5.84075C8.18275 6.24875 7.62175 6.5 7 6.5C6.37825 6.5 5.81725 6.24875 5.40925 5.84075C5.00125 5.43275 4.75 4.87175 4.75 4.25C4.75 3.62825 5.00125 3.06725 5.40925 2.65925C5.81725 2.25125 6.37825 2 7 2C7.62175 2 8.18275 2.25125 8.59075 2.65925C8.99875 3.06725 9.25 3.62825 9.25 4.25Z" fill="#191919"/>
</svg>
