<svg width="14" height="14" viewBox="0 0 14 14" fill="none" xmlns="http://www.w3.org/2000/svg">
<path d="M5.13698 8.51201C6.07448 8.51201 6.87148 8.18376 7.52798 7.52726C8.18448 6.87076 8.51273 6.07376 8.51273 5.13626C8.51273 4.19876 8.18448 3.40176 7.52798 2.74526C6.87148 2.08876 6.07448 1.76051 5.13698 1.76051C4.19948 1.76051 3.40248 2.08876 2.74598 2.74526C2.08948 3.40176 1.76123 4.19876 1.76123 5.13626C1.76123 6.07376 2.08948 6.87076 2.74598 7.52726C3.40248 8.18376 4.19948 8.51201 5.13698 8.51201ZM9.63698 8.51201L13.3637 12.2388L12.2387 13.3638L8.51198 9.63701V9.03926L8.30123 8.82851C7.41073 9.60201 6.35598 9.98876 5.13698 9.98876C3.77748 9.98876 2.62323 9.52001 1.67423 8.58251C0.725232 7.64501 0.250732 6.49651 0.250732 5.13701C0.250732 3.77751 0.725232 2.62326 1.67423 1.67426C2.62323 0.725263 3.77748 0.250763 5.13698 0.250763C6.49648 0.250763 7.64498 0.725263 8.58248 1.67426C9.51998 2.62326 9.98873 3.77751 9.98873 5.13701C9.98873 5.62901 9.87148 6.18576 9.63698 6.80726C9.40248 7.42876 9.13298 7.92676 8.82848 8.30126L9.03923 8.51201H9.63698Z" fill="#191919"/>
</svg>
